<svg width="800" height="180" viewBox="0 0 800 180" xmlns="http://www.w3.org/2000/svg">
  <defs>
    <linearGradient id="headerBg" x1="0%" y1="0%" x2="100%" y2="100%">
      <stop offset="0%" style="stop-color:#fff5f5;stop-opacity:1" />
      <stop offset="100%" style="stop-color:#ffe8e8;stop-opacity:1" />
    </linearGradient>
    <linearGradient id="textGrad" x1="0%" y1="0%" x2="100%" y2="0%">
      <stop offset="0%" style="stop-color:#ff6b6b;stop-opacity:1" />
      <stop offset="50%" style="stop-color:#feca57;stop-opacity:1" />
      <stop offset="100%" style="stop-color:#ff9ff3;stop-opacity:1" />
    </linearGradient>
  </defs>
  
  <rect width="800" height="180" fill="url(#headerBg)" rx="20"/>
  
  <!-- Decorative circles -->
  <circle cx="100" cy="90" r="40" fill="#ff6b6b" opacity="0.1"/>
  <circle cx="700" cy="90" r="50" fill="#feca57" opacity="0.1"/>
  <circle cx="150" cy="140" r="25" fill="#ff9ff3" opacity="0.1"/>
  <circle cx="650" cy="40" r="30" fill="#48dbfb" opacity="0.1"/>
  
  <!-- Logo -->
  <g transform="translate(280, 50)">
    <circle cx="30" cy="30" r="28" fill="url(#textGrad)" opacity="0.2"/>
    <path d="M30 45 C20 38, 12 32, 12 23 C12 17, 16 13, 21 13 C24 13, 27 15, 30 19 C33 15, 36 13, 39 13 C44 17, 48 23, 48 23 C48 32, 40 38, 30 45 Z" 
          fill="url(#textGrad)"/>
    <path d="M15 30 L20 30 L23 25 L26 35 L29 30 L45 30" 
          stroke="white" stroke-width="2" fill="none" stroke-linecap="round" opacity="0.8"/>
  </g>
  
  <!-- Title -->
  <text x="340" y="105" font-family="'Segoe UI', Arial, sans-serif" font-size="48" font-weight="800" fill="url(#textGrad)">
    Vibe Check
  </text>
  
  <!-- Subtitle -->
  <text x="400" y="135" font-family="'Segoe UI', Arial, sans-serif" font-size="16" fill="#666" text-anchor="middle">
    Match your work to your energy
  </text>
</svg>
