<svg width="800" height="300" viewBox="0 0 800 300" xmlns="http://www.w3.org/2000/svg">
  <!-- Background -->
  <rect width="800" height="300" fill="#0a0a0a"/>
  
  <!-- Title -->
  <text x="400" y="40" font-family="Arial, sans-serif" font-size="24" fill="#fbbf24" text-anchor="middle" font-weight="bold">Kendo UI Components</text>
  
  <!-- Component 1: Dialog -->
  <g transform="translate(50, 80)">
    <rect width="140" height="180" rx="8" fill="#1f2937" stroke="#f59e0b" stroke-width="2"/>
    <rect x="10" y="10" width="120" height="30" rx="5" fill="#374151"/>
    <text x="70" y="30" font-family="monospace" font-size="12" fill="#fbbf24" text-anchor="middle" font-weight="bold">Dialog</text>
    
    <rect x="20" y="50" width="100" height="60" rx="5" fill="#fef3c7" stroke="#f59e0b" stroke-width="1"/>
    <line x1="25" y1="60" x2="115" y2="60" stroke="#d97706" stroke-width="1"/>
    <line x1="25" y1="70" x2="100" y2="70" stroke="#d97706" stroke-width="1"/>
    <line x1="25" y1="80" x2="110" y2="80" stroke="#d97706" stroke-width="1"/>
    
    <text x="70" y="135" font-family="monospace" font-size="9" fill="#9ca3af" text-anchor="middle">Capture</text>
    <text x="70" y="150" font-family="monospace" font-size="9" fill="#9ca3af" text-anchor="middle">Interface</text>
  </g>
  
  <!-- Component 2: Window -->
  <g transform="translate(220, 80)">
    <rect width="140" height="180" rx="8" fill="#1f2937" stroke="#f59e0b" stroke-width="2"/>
    <rect x="10" y="10" width="120" height="30" rx="5" fill="#374151"/>
    <text x="70" y="30" font-family="monospace" font-size="12" fill="#fbbf24" text-anchor="middle" font-weight="bold">Window</text>
    
    <rect x="20" y="50" width="100" height="80" rx="5" fill="#fef3c7" stroke="#f59e0b" stroke-width="1"/>
    <rect x="20" y="50" width="100" height="15" rx="5" fill="#f59e0b"/>
    <circle cx="28" cy="57.5" r="3" fill="#dc2626"/>
    <circle cx="38" cy="57.5" r="3" fill="#fbbf24"/>
    <circle cx="48" cy="57.5" r="3" fill="#10b981"/>
    
    <text x="70" y="145" font-family="monospace" font-size="9" fill="#9ca3af" text-anchor="middle">Pinned</text>
    <text x="70" y="160" font-family="monospace" font-size="9" fill="#9ca3af" text-anchor="middle">Notes</text>
  </g>
  
  <!-- Component 3: Drawer -->
  <g transform="translate(390, 80)">
    <rect width="140" height="180" rx="8" fill="#1f2937" stroke="#f59e0b" stroke-width="2"/>
    <rect x="10" y="10" width="120" height="30" rx="5" fill="#374151"/>
    <text x="70" y="30" font-family="monospace" font-size="12" fill="#fbbf24" text-anchor="middle" font-weight="bold">Drawer</text>
    
    <rect x="20" y="50" width="100" height="100" rx="5" fill="#374151" stroke="#f59e0b" stroke-width="1"/>
    <rect x="80" y="50" width="40" height="100" rx="5" fill="#fef3c7" stroke="#f59e0b" stroke-width="2"/>
    
    <text x="70" y="165" font-family="monospace" font-size="9" fill="#9ca3af" text-anchor="middle">History</text>
    <text x="70" y="180" font-family="monospace" font-size="9" fill="#9ca3af" text-anchor="middle">Sidebar</text>
  </g>
  
  <!-- Component 4: Notification -->
  <g transform="translate(560, 80)">
    <rect width="140" height="180" rx="8" fill="#1f2937" stroke="#f59e0b" stroke-width="2"/>
    <rect x="10" y="10" width="120" height="30" rx="5" fill="#374151"/>
    <text x="70" y="30" font-family="monospace" font-size="12" fill="#fbbf24" text-anchor="middle" font-weight="bold">Notification</text>
    
    <rect x="20" y="60" width="100" height="30" rx="5" fill="#10b981" stroke="#059669" stroke-width="2"/>
    <text x="30" y="80" font-family="monospace" font-size="11" fill="#ffffff">✓ Saved!</text>
    
    <text x="70" y="145" font-family="monospace" font-size="9" fill="#9ca3af" text-anchor="middle">Save</text>
    <text x="70" y="160" font-family="monospace" font-size="9" fill="#9ca3af" text-anchor="middle">Confirmation</text>
  </g>
</svg>
