<svg width="1200" height="200" viewBox="0 0 1200 200" xmlns="http://www.w3.org/2000/svg">
  <!-- Background -->
  <defs>
    <linearGradient id="grad1" x1="0%" y1="0%" x2="100%" y2="0%">
      <stop offset="0%" style="stop-color:#f59e0b;stop-opacity:0.2" />
      <stop offset="50%" style="stop-color:#fbbf24;stop-opacity:0.3" />
      <stop offset="100%" style="stop-color:#f59e0b;stop-opacity:0.2" />
    </linearGradient>
  </defs>
  
  <rect width="1200" height="200" fill="url(#grad1)"/>
  
  <!-- Logo -->
  <g transform="translate(50, 50)">
    <circle cx="50" cy="50" r="45" fill="#0a0a0a" stroke="#f59e0b" stroke-width="3"/>
    <path d="M 55 25 L 40 55 L 50 55 L 45 75 L 65 50 L 55 50 Z" 
          fill="#fbbf24" 
          stroke="#f59e0b" 
          stroke-width="2"/>
  </g>
  
  <!-- Title -->
  <text x="160" y="80" font-family="Arial, sans-serif" font-size="48" fill="#0a0a0a" font-weight="bold">BLINK</text>
  <text x="160" y="115" font-family="Arial, sans-serif" font-size="20" fill="#374151">Capture thoughts in under 3 seconds</text>
  
  <!-- Badges -->
  <g transform="translate(160, 130)">
    <!-- React Badge -->
    <rect width="90" height="25" rx="12" fill="#61dafb"/>
    <text x="45" y="17" font-family="monospace" font-size="12" fill="#0a0a0a" text-anchor="middle" font-weight="bold">React</text>
    
    <!-- TypeScript Badge -->
    <rect x="100" width="110" height="25" rx="12" fill="#3178c6"/>
    <text x="155" y="17" font-family="monospace" font-size="12" fill="#ffffff" text-anchor="middle" font-weight="bold">TypeScript</text>
    
    <!-- Kendo UI Badge -->
    <rect x="220" width="100" height="25" rx="12" fill="#ff6358"/>
    <text x="270" y="17" font-family="monospace" font-size="12" fill="#ffffff" text-anchor="middle" font-weight="bold">Kendo UI</text>
    
    <!-- Tailwind Badge -->
    <rect x="330" width="100" height="25" rx="12" fill="#06b6d4"/>
    <text x="380" y="17" font-family="monospace" font-size="12" fill="#ffffff" text-anchor="middle" font-weight="bold">Tailwind</text>
  </g>
  
  <!-- Quick Stats -->
  <g transform="translate(850, 50)">
    <rect width="300" height="100" rx="10" fill="#0a0a0a" stroke="#f59e0b" stroke-width="2"/>
    
    <text x="20" y="30" font-family="monospace" font-size="14" fill="#fbbf24" font-weight="bold">⚡ Under 3s capture</text>
    <text x="20" y="55" font-family="monospace" font-size="14" fill="#fbbf24" font-weight="bold">🔒 100% local storage</text>
    <text x="20" y="80" font-family="monospace" font-size="14" fill="#fbbf24" font-weight="bold">⌨️  Keyboard-first</text>
  </g>
</svg>
